<svg xmlns="http://www.w3.org/2000/svg" viewBox="0 0 80 80"><defs><style>.cls-1{fill:#6a402f;}.cls-2{fill:#fff;}.cls-3{fill:#28994b;}.cls-4{fill:#59342a;}</style></defs><title>Tiny Steps Logo</title><g id="Tiny_Steps_Logotype_Outlined" data-name="Tiny Steps Logotype Outlined"><ellipse class="cls-1" cx="32.89" cy="6.14" rx="6.25" ry="6.14"/><ellipse class="cls-1" cx="20.1" cy="6.78" rx="4.74" ry="4.66"/><ellipse class="cls-1" cx="10.78" cy="11.46" rx="4.03" ry="3.96"/><ellipse class="cls-1" cx="4.9" cy="18.35" rx="3.48" ry="3.42"/><ellipse class="cls-1" cx="2.67" cy="25.56" rx="2.67" ry="2.62"/><ellipse class="cls-1" cx="50.78" cy="8.7" rx="5.33" ry="5.23"/><ellipse class="cls-1" cx="61.64" cy="8.58" rx="4.04" ry="3.97"/><ellipse class="cls-1" cx="70.46" cy="12.59" rx="3.44" ry="3.38"/><ellipse class="cls-1" cx="75.59" cy="18.18" rx="2.97" ry="2.91"/><ellipse class="cls-1" cx="77.73" cy="24.27" rx="2.27" ry="2.23"/><path class="cls-1" d="M50.11,54.29c0,.31,0,.62,0,.92h0a11.23,11.23,0,0,1-1.32,4.32c-.12.23-.25.46-.39.68a11.73,11.73,0,0,1-1.12,1.48l-.06.07-.05.06-.07.07,0,0-.16.17h0a11.39,11.39,0,0,1-8.07,3.41h-.07a11.41,11.41,0,0,1-1.32-.08c-3-.22-8.7-1.28-17.62-9.81A60.17,60.17,0,0,1,8.3,40.8,18.54,18.54,0,0,1,6,35.73H6A18.7,18.7,0,0,1,39.33,20a29,29,0,0,0-5.39,5.65A47.93,47.93,0,0,0,27.36,23a43.05,43.05,0,0,0-2.73,6.66c-1.91-.43-5.59-.12-7.34,0-.5,6.87.35,11.49,2.83,16.65A14.12,14.12,0,0,0,24,51.06a26.48,26.48,0,0,0,15.22,5,25.88,25.88,0,0,0,8.68-1.13c.76-.18,1.48-.39,2.17-.62Z"/><path class="cls-1" d="M59.34,13.29A16,16,0,0,0,44.45,23.56a19.06,19.06,0,0,1,1.68,2A32.46,32.46,0,0,1,52.7,23s2.39,4.48,2.66,6.58a36.35,36.35,0,0,1,7.45.06c0,2.06,1.92,17.05-9.72,23.33a12.27,12.27,0,0,1-.28,5.39c2.6-1.1,6-3.21,10.14-7.25a52,52,0,0,0,9.78-12.84,15.85,15.85,0,0,0,2-4.39h0A16.21,16.21,0,0,0,59.34,13.29Z"/><path class="cls-1" d="M47.54,34.49A18,18,0,0,0,45.8,30.1a41.49,41.49,0,0,1,4.77-2.4,27.58,27.58,0,0,1,1.75,5.16A17.65,17.65,0,0,0,47.54,34.49Z"/><path class="cls-2" d="M32.46,34.49a17.58,17.58,0,0,0-4.77-1.63,26.88,26.88,0,0,1,1.75-5.16,42.38,42.38,0,0,1,4.77,2.4A18.26,18.26,0,0,0,32.46,34.49Z"/><path class="cls-2" d="M47.54,34.49A18,18,0,0,0,45.8,30.1a41.49,41.49,0,0,1,4.77-2.4,27.58,27.58,0,0,1,1.75,5.16A17.65,17.65,0,0,0,47.54,34.49Z"/><path class="cls-3" d="M34.21,30.1a18.26,18.26,0,0,0-1.75,4.39,17.58,17.58,0,0,0-4.77-1.63,26.88,26.88,0,0,1,1.75-5.16A42.38,42.38,0,0,1,34.21,30.1Z"/><path class="cls-3" d="M38.21,52.15s-.36,0-1-.09c-2.27-.24-8-1.17-11.36-4.41-4.31-4.12-4.85-10.79-4.93-14.4a23.12,23.12,0,0,1,11.29,2.41s-1.95,6.13,4.78,15C37.38,51.14,37.78,51.64,38.21,52.15Z"/><path class="cls-3" d="M47,38.46a13.93,13.93,0,0,1-1.26,5.42A32.1,32.1,0,0,1,40,52.34a34.15,34.15,0,0,1-3-3.7h0c-1.88-2.69-3.95-6.5-3.95-10.17,0-6.73,4.81-12.16,6.94-14a20.19,20.19,0,0,1,2.24,2.31c.37.45.75.94,1.12,1.47A18,18,0,0,1,47,38.46Z"/><path class="cls-3" d="M52.32,32.86a17.65,17.65,0,0,0-4.78,1.63A18,18,0,0,0,45.8,30.1a41.49,41.49,0,0,1,4.77-2.4A27.58,27.58,0,0,1,52.32,32.86Z"/><path class="cls-3" d="M59.07,33.25c-.08,3.61-.62,10.28-4.93,14.4a12.22,12.22,0,0,1-2.2,1.64c-.38.22-.77.43-1.16.61s-.84.39-1.27.56a27.49,27.49,0,0,1-7.71,1.69,30.19,30.19,0,0,0,4.55-7c2.6-5.78,1.43-9.45,1.43-9.45A23.09,23.09,0,0,1,59.07,33.25Z"/><path class="cls-4" d="M15.64,77.67c0,1.1-1.79,1.1-1.77,0L14,72l-1.23-.09c-1.14-.08-1.14-1.79,0-1.71l1.73.12a1,1,0,0,1,1,.07l1.78.13c1.13.08,1.14,1.79,0,1.71l-1.47-.11C15.71,74,15.68,75.81,15.64,77.67Z"/><path class="cls-4" d="M18.51,77.66q0-3.59,0-7.18a.89.89,0,0,1,1.78,0c0,2.4,0,4.79-.05,7.18A.89.89,0,0,1,18.51,77.66Z"/><path class="cls-4" d="M24.46,77.35v-.09a.67.67,0,0,1-.2-.26l-1.38-2.68,0,3.34a.89.89,0,0,1-1.78,0c0-2.35,0-4.7.05-7a.89.89,0,0,1,1.78,0v.15a.76.76,0,0,1,.29.32l1.54,3L25,71.25c.09-1.09,1.87-1.1,1.77,0l-.51,6.1C26.14,78.44,24.36,78.44,24.46,77.35Z"/><path class="cls-4" d="M32.74,70.62,29.6,79.41c-.37,1-2.08.59-1.71-.45.56-1.59,1.13-3.17,1.69-4.75l-2.12-3c-.65-.91.89-1.76,1.53-.86l1.31,1.84.72-2C31.39,69.13,33.11,69.58,32.74,70.62Z"/><path class="cls-4" d="M40.12,69.54c1.78.37,2.31,2.13,2.44,3.65.1,1.1-1.68,1.09-1.77,0-.06-.65-.18-1.71-1-2s-.88.78-.66,1.26c.69,1.47,2.77,1.67,3.49,3.17a2.17,2.17,0,0,1-2,3c-1.8.07-2.85-1.44-3.44-2.87-.42-1,1.3-1.47,1.72-.45.26.63.76,1.65,1.62,1.62s.34-1-.11-1.25c-1.37-.92-2.93-1.72-3.14-3.5A2.42,2.42,0,0,1,40.12,69.54Z"/><path class="cls-4" d="M47.52,77.67c0,1.1-1.8,1.1-1.77,0,0-1.9.07-3.8.1-5.69l-1.23-.09c-1.14-.08-1.14-1.79,0-1.71l1.73.12a1,1,0,0,1,1,.07l1.78.13c1.13.08,1.14,1.79,0,1.71l-1.47-.11Z"/><path class="cls-4" d="M53.91,77.05a.86.86,0,1,1,0,1.71H51.62l-.2,0a.84.84,0,0,1-.94-.82l-.08-7.42c0-1.07,1.66-1.1,1.77-.09l1.62-.09c1.15-.06,1.14,1.65,0,1.71l-1.6.09,0,2h0l1,0a.86.86,0,1,1,0,1.71l-1,0h0c0,.39,0,.78,0,1.18Z"/><path class="cls-4" d="M58,77a.8.8,0,0,1,0,.54l-.06.25c-.22,1-1.7.7-1.74-.22L56,71.39a.81.81,0,0,1,0-1.07v-.19c0-.88,1.09-1,1.57-.52,1.52-.44,3.48-.49,3.91,1.07.51,1.87-1.9,3-3.54,3.07C57.89,74.83,57.94,75.91,58,77Zm.46-5.88a4.1,4.1,0,0,0-.71.18l0,.75a2.39,2.39,0,0,0,1.17-.24c.15-.08.81-.52.75-.67A3.6,3.6,0,0,0,58.45,71.11Z"/><path class="cls-4" d="M65.38,69.54c1.77.37,2.3,2.13,2.44,3.65.1,1.1-1.68,1.09-1.78,0-.05-.65-.17-1.71-1-2s-.88.78-.66,1.26c.68,1.47,2.77,1.67,3.48,3.17a2.16,2.16,0,0,1-2,3c-1.8.07-2.85-1.44-3.44-2.87-.42-1,1.3-1.47,1.72-.45.25.63.76,1.65,1.62,1.62,1,0,.34-1-.11-1.25-1.37-.92-2.93-1.72-3.15-3.5A2.43,2.43,0,0,1,65.38,69.54Z"/></g></svg>